<svg width="55" height="55" viewBox="0 0 55 55" fill="none" xmlns="http://www.w3.org/2000/svg">
<path d="M15.1794 28.3163L8.37104 21.2661C6.83644 19.6769 6.86523 17.0965 8.74985 15.9439C16.1144 11.4399 25.2054 13.069 29.287 14.6927L15.1794 28.3163Z" fill="#FDFEFF10" stroke="#4786FF" stroke-width="2.45"/>
<path d="M27.6804 40.8084L33.1398 46.4618C34.6744 48.0509 37.2475 48.1124 38.5192 46.3061C43.4557 39.2944 42.8767 30.9141 41.788 27.1848L27.6804 40.8084Z" fill="#FDFEFF10" stroke="#4786FF" stroke-width="2.45"/>
<path d="M14.9821 39.6141C16.9328 41.6341 16.8246 44.9032 14.7405 46.9158C12.6564 48.9284 4.53203 49.7057 4.53203 49.7057C4.53203 49.7057 5.59232 41.6134 7.67644 39.6008C9.76056 37.5882 13.0314 37.5941 14.9821 39.6141Z" fill="#0AD199"/>
<rect x="10.1191" y="34.9059" width="10.1597" height="13.162" rx="4.775" transform="rotate(-44 10.1191 34.9059)" fill="#FDFEFF10" stroke="#4786FF" stroke-width="2.45"/>
<path d="M14.6897 26.4531L21.9554 19.4367C28.8924 12.7377 37.998 8.74654 47.621 8.18276C46.7217 17.7802 42.4152 26.741 35.4782 33.44L28.2125 40.4564C26.6012 42.0124 24.0336 41.9676 22.4776 40.3563L14.5896 32.1879C13.0336 30.5767 13.0784 28.0091 14.6897 26.4531Z" fill="#FDFEFF10" stroke="#4786FF" stroke-width="2.45"/>
<circle cx="33.8235" cy="21.2376" r="4.95382" transform="rotate(-44 33.8235 21.2376)" fill="#0AD199"/>
<path d="M36.2125 10.5293L44.7903 19.4119" stroke="#4786FF" stroke-width="2.45"/>
</svg>
