<svg width="56" height="55" viewBox="0 0 56 55" fill="none" xmlns="http://www.w3.org/2000/svg">
<rect x="2.22368" y="8.22368" width="47.5526" height="37.1359" rx="1.22368" stroke="#4786FF" stroke-width="2.44737"/>
<ellipse cx="6.5551" cy="12.6546" rx="1.85185" ry="1.88492" fill="#4786FF"/>
<ellipse cx="12.1112" cy="12.6546" rx="1.85185" ry="1.88492" fill="#4786FF"/>
<ellipse cx="17.667" cy="12.6546" rx="1.85185" ry="1.88492" fill="#4786FF"/>
<line x1="1" y1="16.9091" x2="49.4375" y2="16.9091" stroke="#4786FF" stroke-width="2.44737"/>
<path d="M21.618 34L21.1627 32.2674H18.1592L17.6913 34H14.947L17.9632 24.7175H21.2955L24.3496 34H21.618ZM20.6442 30.2187L20.2458 28.7011C20.1531 28.3639 20.0393 27.9276 19.9044 27.3922C19.7737 26.8568 19.6873 26.4732 19.6451 26.2414C19.6072 26.4564 19.5313 26.8105 19.4175 27.3037C19.3079 27.7969 19.0613 28.7686 18.6777 30.2187H20.6442ZM32.064 27.6957C32.064 28.7285 31.7584 29.5274 31.1471 30.0922C30.5401 30.6529 29.6759 30.9332 28.5546 30.9332H27.8527V34H25.355V24.7554H28.5546C29.7223 24.7554 30.5991 25.0105 31.1851 25.5205C31.771 26.0306 32.064 26.7557 32.064 27.6957ZM27.8527 28.8971H28.308C28.6832 28.8971 28.9804 28.7918 29.1996 28.581C29.423 28.3702 29.5347 28.0793 29.5347 27.7084C29.5347 27.0845 29.189 26.7725 28.4977 26.7725H27.8527V28.8971ZM33.5373 34V24.7554H36.0476V34H33.5373Z" fill="#0AD199"/>
<path d="M44.9333 44.4331L44.5441 44.7469L44.8579 45.1362L50.6322 52.2992L50.946 52.6885L51.3352 52.3747L54.1768 50.084L54.5661 49.7702L54.2523 49.3809L48.478 42.2179L48.1642 41.8286L47.7749 42.1424L47.4538 42.4013L44.3792 38.5872L44.0654 38.1979L43.6761 38.5117L42.2553 39.657L41.866 39.9708L42.1798 40.3601L45.2545 44.1742L44.9333 44.4331Z" fill="#4786FF" />
<rect x="50.0947" y="50.8357" width="3.64993" height="0.56424" transform="rotate(-38.8734 50.0947 50.8357)"/>
<circle cx="38.6979" cy="33.7904" r="7.71235" transform="rotate(-38.8734 38.6979 33.7904)" stroke="#4786FF"/>
<circle cx="38.6979" cy="33.7904" r="6.71235" transform="rotate(-38.8734 38.6979 33.7904)" fill="#FDFEFF30"/>
<path d="M34 28L37 26.5V34H34V28Z" fill="#0AD199"/>
<circle cx="38.6979" cy="33.7904" r="7.21235" transform="rotate(-38.8734 38.6979 33.7904)" stroke="#4786FF" stroke-width="2"/>
</svg>
