<svg width="24" height="24" viewBox="0 0 24 24" fill="none" xmlns="http://www.w3.org/2000/svg">
  <path fill="#111827" d="M12 2C6.48 2 2 6.58 2 12.26c0 4.54 2.87 8.39 6.84 9.75.5.09.68-.22.68-.48v-1.68c-2.78.62-3.37-1.37-3.37-1.37-.46-1.2-1.12-1.52-1.12-1.52-.92-.64.07-.63.07-.63 1.02.07 1.56 1.07 1.56 1.07.9 1.58 2.36 1.13 2.94.87.09-.66.35-1.13.64-1.39-2.22-.26-4.56-1.14-4.56-5.07 0-1.12.38-2.03 1.01-2.75-.1-.26-.44-1.3.1-2.7 0 0 .83-.27 2.75 1.05A9.14 9.14 0 0 1 12 7.81c.84 0 1.68.12 2.47.35 1.92-1.32 2.75-1.05 2.75-1.05.54 1.4.2 2.44.1 2.7.63.72 1.01 1.63 1.01 2.75 0 3.94-2.34 4.8-4.58 5.06.36.32.68.95.68 1.92v2.85c0 .26.18.58.69.48A10.28 10.28 0 0 0 22 12.26C22 6.58 17.52 2 12 2Z"/>
</svg>
