<svg width="72" height="72" viewBox="0 0 72 72" fill="none" xmlns="http://www.w3.org/2000/svg">
  <g transform="translate(36 36) scale(1 1.06) translate(-36 -36)">
    <path d="M36 7L58 19.8V44.2L36 57L14 44.2V19.8L36 7Z" fill="#539E43"/>
    <path d="M36 14.4L51.2 23.2V40.8L36 49.6L20.8 40.8V23.2L36 14.4Z" fill="#539E43"/>
    <path d="M30 23.7H33.2V35.8C33.2 38.8 31.4 40.9 28.1 40.9C26.5 40.9 25.1 40.3 24 39.2L25.8 37C26.5 37.7 27.2 38.1 28 38.1C29.2 38.1 29.6 37.4 29.6 35.9V23.7Z" fill="white"/>
    <path d="M36.2 35.9C37.1 37 38.5 37.6 40 37.6C41.3 37.6 41.9 37 41.9 36.2C41.9 35.4 41.4 35 39.8 34.4L38.7 33.9C36.1 33 34.8 31.7 34.8 29.6C34.8 27.1 36.9 25.4 40 25.4C42 25.4 43.7 26 44.9 27.1L43.1 29.3C42.2 28.5 41.2 28.1 40 28.1C38.9 28.1 38.3 28.5 38.3 29.2C38.3 29.9 38.9 30.4 40.5 31L41.5 31.4C44.1 32.4 45.4 33.8 45.4 35.8C45.4 38.5 43.4 40.1 40.2 40.1C38 40.1 36.1 39.4 34.8 37.8L36.2 35.9Z" fill="white"/>
  </g>
</svg>
