<?xml version="1.0" encoding="utf-8"?>
<!-- Generator: Adobe Illustrator 19.2.0, SVG Export Plug-In . SVG Version: 6.00 Build 0)  -->
<svg version="1.1" id="Capa_1" xmlns="http://www.w3.org/2000/svg" xmlns:xlink="http://www.w3.org/1999/xlink" x="0px" y="0px"
	 viewBox="0 0 1869 436.3" style="enable-background:new 0 0 1869 436.3;" xml:space="preserve">
<style type="text/css">
	.st0{fill:#1168A3;}
</style>
<g>
	<g>
		<path class="st0" d="M607.5,368V172.9h110.6V195h-84.8v60.8h74.7v21.7h-74.7V368H607.5z"/>
		<path class="st0" d="M793.5,218.3c10.9,0,20.1,1.4,27.6,4.1c7.5,2.7,13.5,6.5,18.1,11.3c4.6,4.8,7.9,10.7,9.8,17.7
			c1.9,6.9,2.8,14.5,2.8,22.7v91.4c-6.1,1.1-14.1,2.3-24.1,3.8c-10,1.5-20.2,2.2-30.7,2.2c-8,0-15.8-0.7-23.3-2
			c-7.6-1.4-14.3-3.8-20.2-7.2c-5.9-3.5-10.6-8.2-14.2-14.3c-3.6-6.1-5.4-13.9-5.4-23.3c0-8.4,1.8-15.5,5.5-21.3
			c3.7-5.8,8.4-10.5,14.2-14c5.8-3.6,12.4-6.1,19.9-7.7c7.5-1.6,15-2.4,22.5-2.4c10.3,0,20.4,1.2,30.3,3.5v-7.2
			c0-4.4-0.5-8.7-1.4-12.8c-0.9-4.1-2.7-7.8-5.4-11.2c-2.6-3.4-6.2-6-10.7-8c-4.5-2-10.4-3-17.5-3c-9,0-16.9,0.6-23.6,1.9
			c-6.7,1.3-11.9,2.5-15.4,3.8l-3.2-21.4c3.6-1.7,9.5-3.2,17.8-4.4C775.2,218.9,784,218.3,793.5,218.3z M796,349.4
			c6.5,0,12.3-0.2,17.5-0.6c5.1-0.4,9.4-0.9,12.8-1.6v-43.5c-3.4-1-7.4-1.9-12.1-2.5c-4.7-0.6-9.7-0.9-15-0.9
			c-4.8,0-9.6,0.4-14.2,1.1c-4.6,0.7-8.7,2-12.3,3.9c-3.6,1.9-6.5,4.4-8.8,7.4c-2.3,3-3.5,6.9-3.5,11.5c0,9.5,3.2,16,9.6,19.7
			C776.4,347.6,785.1,349.4,796,349.4z"/>
		<path class="st0" d="M867.9,295.2c0-13.2,2.1-24.7,6.3-34.4c4.2-9.7,10-17.7,17.3-24c7.4-6.3,15.9-11,25.7-14
			c9.8-3,20.2-4.6,31.4-4.6c7.1,0,14.2,0.5,21.3,1.4c7,0.9,14.5,2.7,22.5,5.2l-6,22.4c-6.9-2.5-13.3-4.1-19.1-4.9
			c-5.8-0.7-11.6-1.1-17.5-1.1c-7.6,0-14.7,1-21.4,3c-6.7,2-12.6,5.2-17.5,9.5c-4.9,4.3-8.9,9.9-11.8,16.7
			c-2.9,6.8-4.4,15.1-4.4,24.7c0,9.2,1.4,17.2,4.1,23.8c2.7,6.6,6.6,12.1,11.5,16.4c4.9,4.3,10.9,7.5,17.8,9.6
			c6.9,2.1,14.6,3.2,23,3.2c6.7,0,13.2-0.4,19.4-1.1c6.2-0.7,13-2.4,20.3-4.9l3.8,21.7c-7.4,2.7-14.8,4.7-22.4,5.8
			c-7.6,1.2-15.8,1.7-24.6,1.7c-11.8,0-22.5-1.6-32.3-4.9c-9.8-3.3-18.2-8-25.2-14.3c-7-6.3-12.5-14.2-16.4-23.8
			C869.8,318.9,867.9,307.8,867.9,295.2z"/>
		<path class="st0" d="M1065.8,221.8h61.8v21.7h-61.8v68.1c0,7.4,0.5,13.3,1.6,18c1,4.6,2.8,8.4,5.2,11.2c2.4,2.8,5.5,4.8,9.3,5.8
			c3.8,1.1,8.4,1.6,13.9,1.6c7.6,0,13.7-0.6,18.3-1.9c4.6-1.3,9-2.9,13.2-5l3.8,22.1c-2.9,1.3-7.6,2.9-14,5
			c-6.4,2.1-14.3,3.2-23.8,3.2c-10.9,0-19.9-1.3-26.8-3.8c-6.9-2.5-12.3-6.3-16.2-11.3c-3.9-5-6.6-11.3-8-18.8
			c-1.5-7.5-2.2-16.1-2.2-26v-68.1h-30.9v-21.7h30.9v-41l25.8-4.4V221.8z"/>
		<path class="st0" d="M1261.2,363.9c-5.7,1.5-13.2,3-22.5,4.7c-9.4,1.7-20.3,2.5-32.9,2.5c-11.1,0-20.4-1.6-27.7-4.9
			c-7.4-3.3-13.3-7.9-18-13.9c-4.6-6-7.9-13.1-9.8-21.3c-1.9-8.2-2.8-17.2-2.8-27.1v-82.3h25.8v76.6c0,18.1,2.7,30.9,8,38.5
			c5.4,7.6,14.3,11.3,26.9,11.3c2.7,0,5.5-0.1,8.4-0.3c2.8-0.2,5.5-0.5,8-0.8c2.5-0.3,4.7-0.6,6.6-0.9c1.9-0.3,3.2-0.6,3.8-0.8
			V221.8h26.2V363.9z"/>
		<path class="st0" d="M1296.5,368V229.7c21.4-7.4,43.1-11,64.9-11c6.7,0,13.1,0.3,19.2,0.8c6.1,0.5,12.8,1.6,20.2,3.3l-4.7,23
			c-6.7-1.9-12.7-3.1-17.8-3.6c-5.2-0.5-10.8-0.8-16.9-0.8c-12.8,0-25.8,1.8-39.1,5.4V368H1296.5z"/>
	</g>
	<g>
		<path class="st0" d="M1473.1,216.4c12.2,0,22.3,1.4,30.4,4.3c8.1,2.8,14.5,6.8,19.4,12c4.8,5.2,8.3,11.5,10.4,18.9
			c2.1,7.5,3.2,15.8,3.2,25.1v88.3c-5.7,1.3-14.1,2.7-25.2,4.4c-11.1,1.7-23.6,2.5-37.5,2.5c-9.5,0-18-0.8-25.7-2.5
			c-7.7-1.7-14.2-4.5-19.7-8.4c-5.5-3.9-9.7-8.9-12.6-15.1c-2.9-6.2-4.4-13.8-4.4-22.8c0-8.6,1.7-15.9,5-21.7
			c3.4-5.9,7.9-10.6,13.6-14.2c5.7-3.6,12.2-6.1,19.5-7.7c7.4-1.6,15-2.4,23-2.4c10.1,0,19,0.8,26.8,2.5v-4.7
			c0-7.4-2.3-13.5-6.9-18.4c-4.6-4.9-12.6-7.4-24-7.4c-7.4,0-14.5,0.5-21.3,1.6c-6.8,1.1-12.3,2.3-16.5,3.8l-5.4-31.2
			c4.8-1.7,11.7-3.2,20.5-4.6C1454.5,217.1,1463.6,216.4,1473.1,216.4z M1476.5,340.6c4.2,0,8.3-0.1,12.3-0.2
			c4-0.1,7.5-0.4,10.4-0.8v-34c-2.5-0.4-5.6-0.8-9.1-1.1c-3.6-0.3-6.8-0.5-9.8-0.5c-4,0-7.9,0.3-11.7,0.8c-3.8,0.5-7.1,1.4-9.9,2.7
			c-2.8,1.3-5.1,3-6.8,5.4c-1.7,2.3-2.5,5.4-2.5,9.1c0,6.7,2.5,11.5,7.6,14.3C1462,339.2,1468.5,340.6,1476.5,340.6z"/>
		<path class="st0" d="M1694.9,294.3c0,11.3-1.3,21.8-3.8,31.4c-2.5,9.6-6.2,17.8-11,24.6c-4.8,6.8-10.9,12.1-18.3,15.9
			c-7.4,3.8-15.9,5.7-25.5,5.7c-9.9,0-20.1-2.4-30.6-7.2v55.8H1567V224.9c7.1-2.3,15.9-4.2,26.3-5.7c10.4-1.5,20.6-2.2,30.7-2.2
			c22.9,0,40.4,6.9,52.6,20.8C1688.9,251.7,1694.9,270.5,1694.9,294.3z M1655.6,295.5c0-13.2-2.6-24.1-7.9-32.6
			c-5.3-8.5-13.2-12.8-24-12.8c-2.9,0-6.1,0.2-9.5,0.5c-3.4,0.3-6.2,0.6-8.5,0.8v81.3c2.5,1.7,5.9,3,10.1,4.1
			c4.2,1.1,8.4,1.6,12.6,1.6c9.2,0,16.1-3.7,20.5-11.2C1653.3,319.8,1655.6,309.2,1655.6,295.5z"/>
		<path class="st0" d="M1844,362c-8,3.8-15.5,6.4-22.5,7.7c-7,1.4-13.5,2-19.4,2c-10.1,0-18.5-1.5-25.4-4.4
			c-6.8-2.9-12.3-7.2-16.4-12.8c-4.1-5.6-7-12.3-8.7-20.3c-1.7-8-2.5-17.1-2.5-27.4v-54.5h-41v-32.1h79.7v91.7
			c0,8.8,1.6,15.4,4.9,19.7c3.3,4.3,8.7,6.5,16.2,6.5c3.6,0,7.9-0.5,12.9-1.4c5-0.9,10.7-2.9,17-5.8L1844,362z M1786.4,177.7
			c0,7.6-2.4,13.6-7.2,18c-4.8,4.4-10.6,6.6-17.3,6.6c-6.7,0-12.5-2.2-17.2-6.6c-4.7-4.4-7.1-10.4-7.1-18c0-7.8,2.4-13.9,7.1-18.3
			c4.7-4.4,10.5-6.6,17.2-6.6c6.7,0,12.5,2.2,17.3,6.6C1783.9,163.8,1786.4,169.9,1786.4,177.7z"/>
	</g>
</g>
<g>
	<g>
		<g>
			<g>
				<path class="st0" d="M258.6,86.1v32.7h-15.1V86.1c1.1,0.2,4.3,0.3,7.6,0.3S257.5,86.3,258.6,86.1 M271.6,70l-15.3,3.3
					c-0.7,0.1-2.5,0.1-5.3,0.1c-2.8,0-4.6-0.1-5.3-0.1L230.4,70v16.1v32.7v13h13h15.1h13v-13V86.1V70L271.6,70z"/>
			</g>
		</g>
		<g>
			<g>
				<path class="st0" d="M252.1,28.4c12.5,0,22.6,10.1,22.6,22.6c0,10.2-6.8,18.9-16.1,21.7c-2.1,0.6-4.2,1-6.5,1h-2.1
					c-2.3,0-4.4-0.3-6.5-1c-9.3-2.8-16.1-11.4-16.1-21.7c0-12.5,10.1-22.6,22.6-22.6H252.1 M252.1,15.4h-2.1
					c-19.6,0-35.6,16-35.6,35.6c0,7.8,2.5,15.2,7.2,21.4c4.5,6,11,10.5,18.2,12.7c3.3,1,6.8,1.5,10.2,1.5h2.1
					c3.5,0,6.9-0.5,10.2-1.5c7.2-2.2,13.6-6.7,18.2-12.7c4.7-6.2,7.2-13.6,7.2-21.4C287.7,31.4,271.7,15.4,252.1,15.4L252.1,15.4z"
					/>
			</g>
		</g>
	</g>
	<g>
		<g>
			<g>
				<path class="st0" d="M460.7,195.4c3.3,0,6,2.7,6,6v151.3c0,3.3-2.7,6-6,6h-29.3V195.4H460.7 M460.7,182.4h-29.3h-13v13v163.3v13
					h13h29.3c10.5,0,19-8.5,19-19V201.4C479.7,190.9,471.2,182.4,460.7,182.4L460.7,182.4z"/>
			</g>
		</g>
		<g>
			<g>
				<path class="st0" d="M71.9,195.4v163.3H42.6c-3.3,0-6-2.7-6-6V201.4c0-3.3,2.7-6,6-6H71.9 M84.9,182.4h-13H42.6
					c-10.5,0-19,8.5-19,19v151.3c0,10.5,8.5,19,19,19h29.3h13v-13V195.4V182.4L84.9,182.4z"/>
			</g>
		</g>
	</g>
	<g>
		<g>
			<path class="st0" d="M403.1,131.4c8.3,0,15.1,6.8,15.1,15.1v244.4c0,8.3-6.8,15.1-15.1,15.1H99.3c-8.3,0-15.1-6.8-15.1-15.1
				V146.5c0-8.3,6.8-15.1,15.1-15.1H403.1 M403.1,118.4H99.3c-15.5,0-28.1,12.6-28.1,28.1v244.4c0,15.5,12.6,28.1,28.1,28.1h303.9
				c15.5,0,28.1-12.6,28.1-28.1V146.5C431.2,131,418.6,118.4,403.1,118.4L403.1,118.4z"/>
		</g>
	</g>
</g>
<g>
	<g>
		<path class="st0" d="M343.6,273c-12.2,0-22.2,10-22.2,22.2s10,22.2,22.2,22.2c12.2,0,22.2-10,22.2-22.2S355.8,273,343.6,273z"/>
	</g>
	<g>
		<path class="st0" d="M158.8,273c-12.2,0-22.2,10-22.2,22.2s10,22.2,22.2,22.2c12.2,0,22.2-10,22.2-22.2S171,273,158.8,273z"/>
	</g>
	<g>
		<g>
			<path class="st0" d="M398.1,214.3H252.3h-148c-3.9,0-7.1,3.2-7.1,7.1v164.2c0,3.9,3.2,7.1,7.1,7.1h293.9c3.9,0,7.1-3.2,7.1-7.1
				V221.3C405.2,217.4,402,214.3,398.1,214.3z M158.8,330.4c-19.4,0-35.2-15.8-35.2-35.2s15.8-35.2,35.2-35.2s35.2,15.8,35.2,35.2
				S178.2,330.4,158.8,330.4z M288.7,340.3c-7.8,13.2-22.1,21.4-37.5,21.4c-15.3,0-29.7-8.2-37.5-21.5c-1.8-3.1-0.8-7.1,2.3-8.9
				c3.1-1.8,7.1-0.8,8.9,2.3c5.5,9.3,15.5,15,26.3,15c10.7,0,20.8-5.8,26.3-15c1.8-3.1,5.8-4.1,8.9-2.3
				C289.5,333.2,290.5,337.2,288.7,340.3z M343.6,330.4c-19.4,0-35.2-15.8-35.2-35.2s15.8-35.2,35.2-35.2s35.2,15.8,35.2,35.2
				S363,330.4,343.6,330.4z"/>
		</g>
	</g>
</g>
</svg>
