<svg id="Capa_1" data-name="Capa 1" xmlns="http://www.w3.org/2000/svg" viewBox="0 0 813.08 640"><defs><style>.cls-1{fill:#455a64;}.cls-2{fill:#546e7a;}.cls-3{fill:#90a4ae;}.cls-4{fill:#4de7ff;}.cls-5{fill:#3cb6c9;}</style></defs><title>logo</title><rect class="cls-1" x="367.96" y="69.4" width="77.15" height="15.29" transform="translate(483.59 -329.49) rotate(90)"/><rect class="cls-2" x="382.09" y="4.72" width="48.89" height="51.18" rx="24.45" ry="24.45" transform="translate(436.85 -376.23) rotate(90)"/><path class="cls-2" d="M537.29,218.47H666.45a14.37,14.37,0,0,1,14.37,14.37V254.1a0,0,0,0,1,0,0H522.92a0,0,0,0,1,0,0V232.84a14.37,14.37,0,0,1,14.37-14.37Z" transform="translate(838.15 -365.59) rotate(90)"/><path class="cls-2" d="M146.63,218.47H275.79a14.37,14.37,0,0,1,14.37,14.37V254.1a0,0,0,0,1,0,0H132.25a0,0,0,0,1,0,0V232.84A14.37,14.37,0,0,1,146.63,218.47Z" transform="translate(-25.08 447.49) rotate(-90)"/><rect class="cls-3" x="224.36" y="89.2" width="364.36" height="299.4" rx="27.97" ry="27.97"/><rect class="cls-1" x="250.96" y="176.32" width="311.16" height="180.12" rx="20.04" ry="20.04"/><circle class="cls-4" cx="500.42" cy="258.06" r="28.99"/><circle class="cls-4" cx="313.74" cy="258.06" r="28.99"/><path class="cls-4" d="M406.76,309.52A33.37,33.37,0,0,0,424.28,305a33.93,33.93,0,0,0,9.86-8.92,3.91,3.91,0,0,1,5.49-.86h0a3.91,3.91,0,0,1,.94,5.24,38.54,38.54,0,0,1-13.44,13,40.83,40.83,0,0,1-20.37,5.23,40.09,40.09,0,0,1-20-5.06,37.81,37.81,0,0,1-13.17-12.87,3.91,3.91,0,0,1,.94-5.23h0a3.91,3.91,0,0,1,5.5.87A31.61,31.61,0,0,0,406.76,309.52Z"/><path class="cls-1" d="M16.36,598.85V478.28H90.18v19.87H40.32v29.22H84v19.87H40.32v51.62h-24Z"/><path class="cls-1" d="M138.88,505q11.29,0,18.8,2.63a29.46,29.46,0,0,1,12,7.4,27.8,27.8,0,0,1,6.43,11.69A57.18,57.18,0,0,1,178,542.17v54.54q-5.26,1.17-15.58,2.73A156.39,156.39,0,0,1,139.27,601a74.38,74.38,0,0,1-15.88-1.56,32.81,32.81,0,0,1-12.17-5.16,23.74,23.74,0,0,1-7.79-9.35,32.75,32.75,0,0,1-2.73-14.12,26.72,26.72,0,0,1,3.12-13.44,24.66,24.66,0,0,1,8.38-8.77,37,37,0,0,1,12.08-4.77,67.7,67.7,0,0,1,14.22-1.46A78.92,78.92,0,0,1,155,543.92V541a16,16,0,0,0-4.29-11.39Q146.48,525,136,525a86.59,86.59,0,0,0-13.15,1,59.38,59.38,0,0,0-10.23,2.34l-3.31-19.28a76,76,0,0,1,12.66-2.82A110.86,110.86,0,0,1,138.88,505ZM141,581.71q3.89,0,7.6-.1a56,56,0,0,0,6.43-.49v-21q-2.34-.39-5.65-0.68t-6-.29a52.7,52.7,0,0,0-7.21.49,22.92,22.92,0,0,0-6.14,1.66,10.16,10.16,0,0,0-4.19,3.31,9.38,9.38,0,0,0-1.56,5.65q0,6.24,4.67,8.86T141,581.71Z"/><path class="cls-1" d="M188.75,553.08a55.38,55.38,0,0,1,3.12-18.7,41.15,41.15,0,0,1,9.54-15.29,45.4,45.4,0,0,1,16.27-10.32q9.83-3.8,23.47-3.8a85.58,85.58,0,0,1,14.8,1.17,68.23,68.23,0,0,1,13.44,3.9l-5.26,19.28a79.07,79.07,0,0,0-8.67-2.43,57.27,57.27,0,0,0-12.17-1.07,43.12,43.12,0,0,0-14.32,2,23.8,23.8,0,0,0-9.25,5.65,21.14,21.14,0,0,0-5.06,8.67,36.85,36.85,0,0,0-1.56,10.91q0,12.66,7.11,19.87t24.25,7.21a93.42,93.42,0,0,0,11.78-.78,55.61,55.61,0,0,0,11.2-2.53l3.51,19.67a66.89,66.89,0,0,1-12.27,3.21A99.32,99.32,0,0,1,241.73,601q-14,0-24.06-3.7a44.75,44.75,0,0,1-16.46-10.13A39.26,39.26,0,0,1,191.77,572,57.59,57.59,0,0,1,188.75,553.08Z"/><path class="cls-1" d="M296.08,527.17H275.23V507.3h20.84v-23l24-3.9V507.3h38.37v19.87H320v37a28.08,28.08,0,0,0,1,8.18,11.67,11.67,0,0,0,2.73,4.87,8.69,8.69,0,0,0,4.29,2.34,25.14,25.14,0,0,0,5.65.58q3.31,0,6.14-.19a47.62,47.62,0,0,0,5.45-.68,37.44,37.44,0,0,0,5.45-1.46,61.71,61.71,0,0,0,6.14-2.53l3.31,20.65a61.79,61.79,0,0,1-14.32,3.9,99.24,99.24,0,0,1-14.9,1.17,72,72,0,0,1-14.8-1.36,23.78,23.78,0,0,1-10.91-5.26,24.16,24.16,0,0,1-6.82-11q-2.34-7.11-2.34-18.6V527.17Z"/><path class="cls-1" d="M441.58,595.74q-6.62,1.75-16.07,3.51A112.77,112.77,0,0,1,405,601q-11.3,0-18.5-3.12a27,27,0,0,1-11.4-8.86,33.9,33.9,0,0,1-5.75-13.54,87.38,87.38,0,0,1-1.56-17.14v-51h24v47.92q0,12.67,3,18.8t11.78,6.14a61.76,61.76,0,0,0,10.91-1V507.3h24.15v88.43Z"/><path class="cls-1" d="M529.43,531.65q-2.34-.58-5.55-1.17t-6.53-1.07q-3.31-.48-6.43-0.68t-5.26-.19q-5.07,0-9.93.49a62.21,62.21,0,0,0-9.93,1.85v68H461.65V513.34a144,144,0,0,1,19.58-5.65,113.49,113.49,0,0,1,23.47-2.14q1.94,0,5.55.19t7.69,0.68q4.09,0.49,8.28,1.17a44,44,0,0,1,7.5,1.85Z"/><path class="cls-5" d="M576.41,505q11.29,0,18.8,2.63a29.46,29.46,0,0,1,12,7.4,27.8,27.8,0,0,1,6.43,11.69,57.18,57.18,0,0,1,1.95,15.49v54.54q-5.26,1.17-15.58,2.73A156.39,156.39,0,0,1,576.8,601a74.38,74.38,0,0,1-15.88-1.56,32.81,32.81,0,0,1-12.17-5.16,23.74,23.74,0,0,1-7.79-9.35,32.75,32.75,0,0,1-2.73-14.12,26.72,26.72,0,0,1,3.12-13.44,24.66,24.66,0,0,1,8.38-8.77,37,37,0,0,1,12.08-4.77A67.7,67.7,0,0,1,576,542.36a78.92,78.92,0,0,1,16.56,1.56V541a16,16,0,0,0-4.29-11.39Q584,525,573.49,525a86.59,86.59,0,0,0-13.15,1,59.38,59.38,0,0,0-10.23,2.34l-3.31-19.28a76,76,0,0,1,12.66-2.82A110.86,110.86,0,0,1,576.41,505Zm2.14,76.75q3.89,0,7.6-.1a56,56,0,0,0,6.43-.49v-21q-2.34-.39-5.65-0.68t-6-.29a52.7,52.7,0,0,0-7.21.49,22.92,22.92,0,0,0-6.14,1.66,10.16,10.16,0,0,0-4.19,3.31,9.38,9.38,0,0,0-1.56,5.65q0,6.24,4.67,8.86T578.56,581.71Z"/><path class="cls-5" d="M709.06,553.08a75.88,75.88,0,0,1-2.34,19.38,46.63,46.63,0,0,1-6.82,15.19,31.09,31.09,0,0,1-11.3,9.84A34,34,0,0,1,672.83,601a45.08,45.08,0,0,1-18.89-4.48V631H630V510.22a98.56,98.56,0,0,1,16.27-3.51,135.8,135.8,0,0,1,19-1.36q21.23,0,32.53,12.86T709.06,553.08Zm-24.35.78q0-12.27-4.87-20.16T665,525.81q-2.73,0-5.84.29l-5.26.49v50.26a20,20,0,0,0,6.23,2.53,31.9,31.9,0,0,0,7.79,1q8.57,0,12.66-6.92T684.71,553.86Z"/><path class="cls-5" d="M796.72,595a59.32,59.32,0,0,1-13.93,4.77,63.41,63.41,0,0,1-12,1.27q-9.35,0-15.68-2.73A24.11,24.11,0,0,1,745,590.38a32,32,0,0,1-5.36-12.56,82.65,82.65,0,0,1-1.56-16.95v-33.7H712.76V507.3H762V564q0,8.18,3,12.17t10,4a44.43,44.43,0,0,0,8-.88,44.88,44.88,0,0,0,10.52-3.6ZM761.07,481q0,7-4.48,11.1a15.35,15.35,0,0,1-10.71,4.09,15,15,0,0,1-10.62-4.09q-4.38-4.09-4.38-11.1,0-7.2,4.38-11.3a15,15,0,0,1,10.62-4.09,15.35,15.35,0,0,1,10.71,4.09Q761.07,473.8,761.07,481Z"/></svg>