<svg id="Capa_1" data-name="Capa 1" xmlns="http://www.w3.org/2000/svg" viewBox="0 0 1091.34 1452.47"><defs><style>.cls-1,.cls-6{fill:none;stroke-miterlimit:10;}.cls-1{stroke:#78909c;stroke-width:75.25px;}.cls-2,.cls-5{fill:#78909c;}.cls-3{fill:#455a64;}.cls-4{fill:#90a4ae;}.cls-5{opacity:0.38;}.cls-6{stroke:#90a4ae;stroke-linecap:round;stroke-width:70.1px;}.cls-7{fill:#546e7a;}.cls-8{fill:#4de7ff;}</style></defs><title>logo</title><path class="cls-1" d="M727.28,829.25s233.24-39.61,242,176"/><path class="cls-1" d="M363.84,829.25s-233.24-39.61-242,176"/><rect class="cls-2" x="351.01" y="1165.43" width="91.17" height="155.53"/><path class="cls-3" d="M456.57,1294.83H337.86a21.92,21.92,0,0,0-21.44,17.35L299,1393.91a21.92,21.92,0,0,0,21.44,26.5H472.78a21.92,21.92,0,0,0,21.51-26.19l-16.21-81.74A21.92,21.92,0,0,0,456.57,1294.83Z"/><rect class="cls-2" x="652.85" y="1165.43" width="91.17" height="155.53"/><path class="cls-3" d="M758.41,1294.83H639.7a21.92,21.92,0,0,0-21.44,17.35l-17.45,81.74a21.92,21.92,0,0,0,21.44,26.5H774.62a21.92,21.92,0,0,0,21.51-26.19l-16.21-81.74A21.92,21.92,0,0,0,758.41,1294.83Z"/><rect class="cls-4" x="275.7" y="716.19" width="564.96" height="465.51" rx="43.59" ry="43.59"/><rect class="cls-5" x="275.7" y="716.19" width="564.96" height="106"/><path class="cls-2" d="M551.69,975.23H411.89V835.43h139.8v139.8Zm-111.82-28h83.83V863.41H439.87v83.84Z"/><path class="cls-2" d="M720.49,975.23H580.69V835.43h139.8v139.8Zm-111.82-28h83.83V863.41H608.68v83.84Z"/><path class="cls-2" d="M552.77,1139.73H413V999.93h139.8v139.8Zm-111.82-28h83.84v-83.83H440.95v83.83Z"/><rect class="cls-2" x="468.25" y="891.2" width="27.69" height="27.69"/><rect class="cls-2" x="636.75" y="891.49" width="27.69" height="27.69"/><rect class="cls-2" x="469.01" y="1058.43" width="27.69" height="27.69"/><rect class="cls-2" x="580.68" y="999.26" width="27.69" height="138.53"/><rect class="cls-2" x="636.07" y="943.84" width="27.69" height="138.53" transform="translate(1663.02 363.19) rotate(90)"/><rect class="cls-2" x="644.36" y="1045.9" width="27.69" height="46.2" transform="translate(1727.2 410.8) rotate(90)"/><rect class="cls-2" x="691.18" y="1107.19" width="27.69" height="29.64" transform="translate(1827.04 416.98) rotate(90)"/><path class="cls-6" d="M908.72,1069.28c0-39.95,28.1-72.33,62.76-72.33s62.76,32.39,62.76,72.33"/><path class="cls-6" d="M57.09,1069.28c0-39.95,28.1-72.33,62.76-72.33s62.76,32.39,62.76,72.33"/><rect class="cls-3" x="487.93" y="155.73" width="150.17" height="29.76" transform="translate(733.63 -392.4) rotate(90)"/><rect class="cls-7" x="515.43" y="29.83" width="95.16" height="99.62" rx="47.58" ry="47.58" transform="translate(642.65 -483.38) rotate(90)"/><path class="cls-7" d="M817.51,445.87h251.4a28,28,0,0,1,28,28v41.38a0,0,0,0,1,0,0H789.53a0,0,0,0,1,0,0V473.85A28,28,0,0,1,817.51,445.87Z" transform="translate(1423.76 -462.66) rotate(90)"/><path class="cls-7" d="M57.12,445.87h251.4a28,28,0,0,1,28,28v41.38a0,0,0,0,1,0,0H29.15a0,0,0,0,1,0,0V473.85A28,28,0,0,1,57.12,445.87Z" transform="translate(-297.73 663.37) rotate(-90)"/><rect class="cls-4" x="208.42" y="194.27" width="709.19" height="582.76" rx="54.43" ry="54.43"/><rect class="cls-3" x="260.19" y="363.84" width="605.65" height="350.58" rx="39.01" ry="39.01"/><circle class="cls-8" cx="745.75" cy="522.94" r="56.43"/><circle class="cls-8" cx="382.4" cy="522.94" r="56.43"/><path class="cls-8" d="M563.45,623.1q19.4,0,34.1-8.84a66,66,0,0,0,19.19-17.37,7.61,7.61,0,0,1,10.69-1.68h0a7.61,7.61,0,0,1,1.83,10.19q-10.79,16.7-26.16,25.35a79.47,79.47,0,0,1-39.66,10.17,78,78,0,0,1-38.95-9.86q-14.91-8.38-25.62-25a7.61,7.61,0,0,1,1.84-10.18h0a7.61,7.61,0,0,1,10.71,1.7,64.09,64.09,0,0,0,18.63,17Q544.21,623.1,563.45,623.1Z"/></svg>