<svg width="72" height="72" viewBox="0 0 72 72" fill="none" xmlns="http://www.w3.org/2000/svg">
  <rect x="8" y="8" width="56" height="56" rx="16" fill="#E76F00"/>
  <path d="M45 24c2.8 3 2.4 5.8 0.1 8.3-1.6 1.8-3.9 3.1-4 5.2 0 1.3 1 2.6 2.6 3.3-2 0.1-4.1-1-5.1-2.8-1.4-2.5-.3-5.3 1.9-7.5 2.1-2.1 3.2-4.1 3.1-6.5 0-0.1 0-0.1 0-0.2z" fill="white" opacity="0.95"/>
  <path d="M27 45c0-2.8 3.2-5.2 9-5.2s9 2.4 9 5.2-3.2 5.2-9 5.2-9-2.4-9-5.2z" fill="white" opacity="0.95"/>
  <path d="M25 49.5c1.7 1 5.2 1.9 11 1.9s9.3-.9 11-1.9" stroke="white" stroke-width="2" stroke-linecap="round" opacity="0.95"/>
  <path d="M30 19.5c1.6 2 1.5 3.7.2 5.4" stroke="white" stroke-width="2" stroke-linecap="round" opacity="0.9"/>
  <path d="M35.5 17.5c1.2 1.7 1.3 3.1.2 4.6" stroke="white" stroke-width="2" stroke-linecap="round" opacity="0.85"/>
</svg>
